<svg xmlns="http://www.w3.org/2000/svg" viewBox="0 0 959.619 221.518">
  <defs>
    <style>
      .cls-1 {
        fill: #fff;
      }
    </style>
  </defs>
  <path id="Subtraction_4" data-name="Subtraction 4" class="cls-1" d="M952.762,349.018H318.5V127.5h959.618a223.787,223.787,0,0,1-6.661,38.875,198.505,198.505,0,0,1-12.475,34.039,193.4,193.4,0,0,1-17.434,29.523,205.482,205.482,0,0,1-21.538,25.329c-27.519,27.56-64.557,49.7-110.083,65.8A467.261,467.261,0,0,1,1052.5,337.15c-16.2,3.479-32.987,6.274-49.9,8.307A457.5,457.5,0,0,1,952.762,349.018Z" transform="translate(-318.5 -127.5)"/>
</svg>
