<svg xmlns="http://www.w3.org/2000/svg" xmlns:xlink="http://www.w3.org/1999/xlink" viewBox="0 0 1920 1804.495">
  <defs>
    <style>
      .cls-1 {
        opacity: 0.654;
        fill: url(#linear-gradient);
      }
    </style>
    <linearGradient id="linear-gradient" x1="0.5" x2="0.5" y2="1" gradientUnits="objectBoundingBox">
      <stop offset="0" stop-color="#fff"/>
      <stop offset="1" stop-color="#fff" stop-opacity="0"/>
    </linearGradient>
  </defs>
  <path id="Subtraction_8" data-name="Subtraction 8" class="cls-1" d="M58.2,1951.5h-.01A212.252,212.252,0,0,1,0,1943.352V1536.517a210.208,210.208,0,0,1,57.805-8.092,212.531,212.531,0,0,1,104.4,27.447,210.406,210.406,0,0,1,44.061,33.184,211.969,211.969,0,0,1,34.9,45.154,212.981,212.981,0,0,1,17.591,39.063,210.454,210.454,0,0,1,9.178,40.543,211.635,211.635,0,0,1,1.075,40.863,212.677,212.677,0,0,1-20.91,78.038,211.568,211.568,0,0,1-21.363,34.851,210.488,210.488,0,0,1-28.22,30.524,213.215,213.215,0,0,1-86.576,46.428A210.426,210.426,0,0,1,58.2,1951.5Zm1599.788-505.307a120.43,120.43,0,0,1-59.114-15.54,119.221,119.221,0,0,1-44.708-44.356,120.69,120.69,0,0,1-9.96-22.119,119.088,119.088,0,0,1-5.805-46.092,120.107,120.107,0,0,1,23.936-63.92,119.091,119.091,0,0,1,15.978-17.282,120.753,120.753,0,0,1,49.021-26.289,119.126,119.126,0,0,1,30.428-3.949,120.437,120.437,0,0,1,59.114,15.541,119.2,119.2,0,0,1,44.709,44.356,120.632,120.632,0,0,1,9.96,22.117,119.126,119.126,0,0,1,5.8,46.094,120.1,120.1,0,0,1-23.935,63.919,119.118,119.118,0,0,1-15.979,17.283,120.737,120.737,0,0,1-49.021,26.288A119.194,119.194,0,0,1,1657.986,1446.188ZM366,1223a200.476,200.476,0,0,1-40.106-4.043,197.869,197.869,0,0,1-71.157-29.943,199.57,199.57,0,0,1-72.1-87.554,198.044,198.044,0,0,1-11.6-37.354,200.957,200.957,0,0,1,0-80.211,197.909,197.909,0,0,1,29.943-71.157,199.589,199.589,0,0,1,87.554-72.1,197.984,197.984,0,0,1,37.355-11.6,200.95,200.95,0,0,1,80.212,0,197.916,197.916,0,0,1,71.157,29.943,199.582,199.582,0,0,1,72.1,87.554,197.981,197.981,0,0,1,11.6,37.355,200.946,200.946,0,0,1,0,80.211,197.926,197.926,0,0,1-29.943,71.158,199.595,199.595,0,0,1-87.555,72.1,198.021,198.021,0,0,1-37.354,11.595A200.479,200.479,0,0,1,366,1223ZM1479.5,915a43.368,43.368,0,1,1,16.933-3.419A43.225,43.225,0,0,1,1479.5,915ZM0,659.507H0V389.493A147.469,147.469,0,0,1,35.615,411.76a148.169,148.169,0,0,1,27.82,31.206A146.826,146.826,0,0,1,88,524.5a146.829,146.829,0,0,1-24.565,81.534,148.193,148.193,0,0,1-27.82,31.207A147.506,147.506,0,0,1,0,659.507ZM1754,525a200.467,200.467,0,0,1-40.106-4.044,197.881,197.881,0,0,1-71.157-29.943,199.57,199.57,0,0,1-72.1-87.554,197.989,197.989,0,0,1-11.6-37.355,200.54,200.54,0,0,1,4.129-96.728A199.6,199.6,0,0,1,1666.948,147h174.106A199.882,199.882,0,0,1,1920,216.214V435.787c-.323.488-.655.984-.987,1.476a199.591,199.591,0,0,1-87.554,72.1,197.982,197.982,0,0,1-37.354,11.595A200.471,200.471,0,0,1,1754,525ZM1244.5,266a119.386,119.386,0,0,1-23.882-2.407,117.838,117.838,0,0,1-42.372-17.831,118.858,118.858,0,0,1-42.934-52.136,117.961,117.961,0,0,1-6.9-22.244A119.379,119.379,0,0,1,1126,147.5c0-.168,0-.332,0-.5h237v.5a119.379,119.379,0,0,1-2.408,23.882,117.836,117.836,0,0,1-17.831,42.372,118.854,118.854,0,0,1-52.136,42.934,117.913,117.913,0,0,1-22.244,6.9A119.372,119.372,0,0,1,1244.5,266Z" transform="translate(0 -147.001)"/>
</svg>
