<svg xmlns="http://www.w3.org/2000/svg" viewBox="0 0 1921 1100.004">
  <defs>
    <style>
      .cls-1 {
        fill: #fff;
      }
    </style>
  </defs>
  <path id="Subtraction_2" data-name="Subtraction 2" class="cls-1" d="M1182.336,1284.6H194.5V217.686c13.546-4.031,27.7-7.8,42.068-11.195a831.724,831.724,0,0,1,81.816-15.052A776.715,776.715,0,0,1,419.979,184.6a684.3,684.3,0,0,1,77.981,4.386c13.615,1.568,27.217,3.584,40.427,5.992,13.827,2.52,27.612,5.541,40.974,8.98,13.941,3.587,27.807,7.728,41.211,12.307,13.949,4.765,27.79,10.14,41.139,15.975,13.863,6.06,27.576,12.783,40.758,19.984,13.666,7.464,27.148,15.65,40.07,24.332,21.713,14.588,43.591,28.388,65.025,41.017,20.8,12.258,41.764,23.753,62.3,34.166,19.895,10.085,39.914,19.418,59.5,27.739,18.972,8.058,38.023,15.372,56.621,21.739,68.787,23.549,134.767,35.489,196.106,35.489a424.572,424.572,0,0,0,72.861-6.091,341.791,341.791,0,0,0,61.318-16.508c12.383-4.658,24.981-10.917,39.647-19.7,13.212-7.91,26.881-17.138,41.353-26.908l.019-.013c24.474-16.524,52.212-35.253,87.3-54.245,40.543-21.943,83.533-40.208,131.426-55.841,13.726-4.481,28.069-8.805,42.631-12.852,15.237-4.234,31.155-8.286,47.31-12.045,16.842-3.919,34.462-7.64,52.372-11.058,18.631-3.556,38.084-6.884,57.82-9.89,20.483-3.121,41.9-6,63.651-8.542,22.511-2.635,46.017-4.993,69.865-7.01,24.632-2.084,50.358-3.867,76.465-5.3,26.868-1.474,54.944-2.62,83.448-3.406,1.972-.055,3.907-.1,5.916-.127v923.583c-26.738,13.129-54.976,25.709-83.93,37.391-29.665,11.968-60.882,23.319-92.786,33.737-32.668,10.669-66.948,20.653-101.889,29.675-35.764,9.235-73.189,17.714-111.236,25.2-38.918,7.659-79.57,14.494-120.828,20.315-42.168,5.95-86.13,11-130.666,15.019-45.5,4.1-92.854,7.238-140.749,9.313C1284.48,1283.528,1233.651,1284.6,1182.336,1284.6Z" transform="translate(-194.5 -184.599)"/>
</svg>
